<svg version="1.1" id="svg2" xmlns="http://www.w3.org/2000/svg">
  <path d="M 20 0 C 8.972 0 0 8.972 0 20 C 0 31.028 8.972 40 20 40 C 31.028 40 40 31.028 40 20 C 40 8.972 31.028 0 20 0" id="path8" style="fill:#ffffff"/>
  <path d="M 19.268 20.359 C 19.089 20.749 18.89 21.186 18.685 21.652 C 17.959 23.296 17.156 25.297 16.862 26.579 C 16.757 27.036 16.691 27.601 16.693 28.229 C 16.693 28.477 16.706 28.738 16.727 29.003 C 17.753 29.38 18.861 29.588 20.019 29.59 C 21.072 29.588 22.084 29.413 23.032 29.098 C 22.809 28.895 22.597 28.678 22.403 28.433 C 21.119 26.796 20.402 24.395 19.268 20.359" id="path10" style="fill:#91dc47"/>
  <path d="M 14.527 12.222 C 12.074 13.951 10.468 16.802 10.462 20.034 C 10.468 23.216 12.025 26.031 14.417 27.767 C 15.003 25.323 16.473 23.086 18.678 18.602 C 18.547 18.242 18.398 17.849 18.231 17.435 C 17.62 15.903 16.739 14.123 15.952 13.318 C 15.551 12.897 15.064 12.533 14.527 12.222" id="path12" style="fill:#91dc47"/>
  <path d="M 28.343 30.994 C 27.077 30.836 26.033 30.644 25.119 30.322 C 23.582 31.085 21.851 31.516 20.019 31.516 C 13.677 31.516 8.537 26.377 8.536 20.034 C 8.536 16.592 10.052 13.507 12.451 11.402 C 11.81 11.247 11.14 11.157 10.457 11.158 C 7.088 11.19 3.532 13.054 2.051 18.09 C 1.912 18.823 1.945 19.377 1.945 20.034 C 1.945 30.016 10.038 38.108 20.019 38.108 C 26.132 38.108 31.532 35.071 34.802 30.425 C 33.033 30.866 31.332 31.077 29.876 31.081 C 29.33 31.081 28.817 31.052 28.343 30.994" id="path14" style="fill:#63b132"/>
  <path d="M 24.947 27.492 C 25.058 27.547 25.311 27.638 25.663 27.738 C 28.031 25.999 29.57 23.199 29.577 20.034 L 29.576 20.034 C 29.567 14.757 25.297 10.487 20.019 10.477 C 18.97 10.479 17.962 10.652 17.018 10.965 C 18.959 13.177 19.892 16.337 20.794 19.795 C 20.795 19.797 20.796 19.798 20.796 19.799 C 20.798 19.802 21.085 20.759 21.577 22.029 C 22.067 23.298 22.764 24.868 23.524 26.012 C 24.024 26.779 24.573 27.33 24.947 27.492" id="path16" style="fill:#90b4fe"/>
  <path d="M 20.019 1.959 C 13.965 1.959 8.61 4.94 5.33 9.509 C 7.037 8.44 8.78 8.054 10.301 8.068 C 12.402 8.074 14.054 8.726 14.847 9.171 C 15.038 9.282 15.22 9.4 15.398 9.522 C 16.812 8.9 18.374 8.551 20.019 8.551 C 26.361 8.552 31.502 13.692 31.503 20.034 L 31.502 20.034 C 31.502 23.231 30.194 26.122 28.086 28.204 C 28.603 28.262 29.155 28.298 29.719 28.295 C 31.72 28.296 33.884 27.854 35.506 26.49 C 36.564 25.599 37.45 24.295 37.941 22.339 C 38.037 21.583 38.093 20.815 38.093 20.034 C 38.093 10.052 30.001 1.959 20.019 1.959" id="path18" style="fill:#5881d8"/>
</svg>